<svg xmlns="http://www.w3.org/2000/svg" viewBox="0 0 100 100">
  <defs>
    <linearGradient id="guitarGradient" x1="0%" y1="0%" x2="100%" y2="100%">
      <stop offset="0%" style="stop-color:#8B5CF6;stop-opacity:1" />
      <stop offset="100%" style="stop-color:#EC4899;stop-opacity:1" />
    </linearGradient>
  </defs>
  <rect width="100" height="100" rx="20" fill="url(#guitarGradient)"/>
  <g transform="translate(20, 25)">
    <path d="M 10 5 L 50 5 L 55 15 L 50 45 L 10 45 Z" fill="none" stroke="#FFFFFF" stroke-width="2" stroke-linecap="round"/>
    <circle cx="20" cy="25" r="8" fill="none" stroke="#FFFFFF" stroke-width="2"/>
    <circle cx="40" cy="25" r="8" fill="none" stroke="#FFFFFF" stroke-width="2"/>
    <line x1="10" y1="35" x2="50" y2="35" stroke="#FFFFFF" stroke-width="1.5"/>
    <line x1="10" y1="40" x2="50" y2="40" stroke="#FFFFFF" stroke-width="1.5"/>
    <line x1="10" y1="15" x2="50" y2="15" stroke="#FFFFFF" stroke-width="1.5"/>
    <line x1="10" y1="20" x2="50" y2="20" stroke="#FFFFFF" stroke-width="1.5"/>
    <rect x="5" y="45" width="50" height="8" rx="4" fill="#FFFFFF"/>
  </g>
  <g transform="translate(15, 60)">
    <line x1="0" y1="0" x2="70" y2="0" stroke="#FFFFFF" stroke-width="2"/>
    <line x1="0" y1="8" x2="70" y2="8" stroke="#FFFFFF" stroke-width="2"/>
    <line x1="0" y1="16" x2="70" y2="16" stroke="#FFFFFF" stroke-width="2"/>
    <line x1="0" y1="24" x2="70" y2="24" stroke="#FFFFFF" stroke-width="2"/>
    <line x1="0" y1="32" x2="70" y2="32" stroke="#FFFFFF" stroke-width="2"/>
    <circle cx="20" cy="16" r="4" fill="#FFFFFF"/>
    <circle cx="50" cy="8" r="4" fill="#FFFFFF"/>
  </g>
</svg>

