<svg xmlns="http://www.w3.org/2000/svg" width="1200" height="630" viewBox="0 0 1200 630">
  <defs>
    <linearGradient id="bgGradient" x1="0%" y1="0%" x2="100%" y2="100%">
      <stop offset="0%" style="stop-color:#1e1b4b;stop-opacity:1" />
      <stop offset="100%" style="stop-color:#312e81;stop-opacity:1" />
    </linearGradient>
  </defs>
  <rect width="1200" height="630" fill="url(#bgGradient)"/>
  
  <g transform="translate(200, 150)">
    <g transform="scale(2)">
      <path d="M 10 5 L 50 5 L 55 15 L 50 45 L 10 45 Z" fill="none" stroke="#FFFFFF" stroke-width="3" stroke-linecap="round"/>
      <circle cx="20" cy="25" r="10" fill="none" stroke="#FFFFFF" stroke-width="3"/>
      <circle cx="40" cy="25" r="10" fill="none" stroke="#FFFFFF" stroke-width="3"/>
      <line x1="10" y1="35" x2="50" y2="35" stroke="#FFFFFF" stroke-width="2"/>
      <line x1="10" y1="40" x2="50" y2="40" stroke="#FFFFFF" stroke-width="2"/>
      <line x1="10" y1="15" x2="50" y2="15" stroke="#FFFFFF" stroke-width="2"/>
      <line x1="10" y1="20" x2="50" y2="20" stroke="#FFFFFF" stroke-width="2"/>
      <rect x="5" y="45" width="50" height="10" rx="5" fill="#FFFFFF"/>
    </g>
  </g>
  
  <g transform="translate(150, 350)">
    <line x1="0" y1="0" x2="900" y2="0" stroke="#FFFFFF" stroke-width="4"/>
    <line x1="0" y1="20" x2="900" y2="20" stroke="#FFFFFF" stroke-width="4"/>
    <line x1="0" y1="40" x2="900" y2="40" stroke="#FFFFFF" stroke-width="4"/>
    <line x1="0" y1="60" x2="900" y2="60" stroke="#FFFFFF" stroke-width="4"/>
    <line x1="0" y1="80" x2="900" y2="80" stroke="#FFFFFF" stroke-width="4"/>
    <circle cx="200" cy="40" r="12" fill="#8B5CF6"/>
    <circle cx="400" cy="20" r="12" fill="#EC4899"/>
    <circle cx="600" cy="60" r="12" fill="#8B5CF6"/>
    <circle cx="800" cy="40" r="12" fill="#EC4899"/>
  </g>
  
  <text x="600" y="280" font-family="Arial, sans-serif" font-size="64" font-weight="bold" fill="#FFFFFF" text-anchor="middle">Guitar Sight Reading</text>
  <text x="600" y="340" font-family="Arial, sans-serif" font-size="36" fill="#E5E7EB" text-anchor="middle">Master First Position Notes</text>
</svg>

